<svg xmlns="http://www.w3.org/2000/svg" xmlns:xlink="http://www.w3.org/1999/xlink" width="63" height="32" viewBox="0 0 63 32">
  <defs>
    <clipPath id="clip-path">
      <rect id="Rectangle_44" data-name="Rectangle 44" width="32" height="63" fill="#fff"/>
    </clipPath>
  </defs>
  <g id="long_arrow" transform="translate(0 32) rotate(-90)">
    <g id="Groupe_11" data-name="Groupe 11" transform="translate(0 0)" clip-path="url(#clip-path)">
      <path id="Tracé_6" data-name="Tracé 6" d="M31.547,45.878a1.547,1.547,0,0,0-2.19,0L17.549,57.706V1.551a1.548,1.548,0,1,0-3.1,0V57.706L2.643,45.878a1.55,1.55,0,1,0-2.19,2.194L14.9,62.547A1.582,1.582,0,0,0,16,63a1.582,1.582,0,0,0,1.094-.453L31.547,48.072a1.553,1.553,0,0,0,0-2.194" transform="translate(-0.001 -0.001)" fill="#fff"/>
    </g>
  </g>
</svg>
